<?xml version="1.0" standalone="no"?>
<!DOCTYPE svg PUBLIC "-//W3C//DTD SVG 1.1//EN" "http://www.w3.org/Graphics/SVG/1.1/DTD/svg11.dtd" >
<svg xmlns="http://www.w3.org/2000/svg" xmlns:xlink="http://www.w3.org/1999/xlink" version="1.1">
<metadata></metadata>
<defs>
<font id="neue_machinaultrabold" horiz-adv-x="1392" >
<font-face units-per-em="2048" ascent="1638" descent="-410" />
<missing-glyph horiz-adv-x="573" />
<glyph horiz-adv-x="0" />
<glyph horiz-adv-x="682" />
<glyph unicode=" "  horiz-adv-x="573" />
<glyph unicode="&#x09;" horiz-adv-x="573" />
<glyph unicode="&#xa0;" horiz-adv-x="573" />
<glyph unicode="!" horiz-adv-x="737" d="M143 207q0 96 61 159.5t163 63.5q100 0 163.5 -64t63.5 -159q0 -98 -63.5 -162.5t-163.5 -64.5q-102 0 -163 64t-61 163zM205 1444h327l-61 -914h-205z" />
<glyph unicode="&#x22;" horiz-adv-x="921" d="M143 932v655h246v-655h-246zM532 932v655h246v-655h-246z" />
<glyph unicode="#" horiz-adv-x="2283" d="M143 215v205h449l158 409h-388v205h467l211 551l232 -90l-178 -461h411l211 551l232 -90l-179 -461h371v-205h-448l-158 -409h387v-205h-465l-201 -520l-231 90l166 430h-410l-200 -520l-232 90l166 430h-371zM858 420h410l157 409h-409z" />
<glyph unicode="$" horiz-adv-x="1619" d="M143 557h328q0 -130 55 -195.5t181 -85.5v359q-70 24 -116 41t-103.5 42.5t-94.5 49t-75 57t-59.5 70t-35.5 84.5t-14 104q0 173 126.5 270t371.5 109v285h204v-291q251 -30 378.5 -166.5t127.5 -337.5h-327q0 171 -179 213v-299q65 -22 113 -39.5t110.5 -45t107.5 -54 t92 -63t76.5 -75t48 -88t18.5 -104.5q0 -188 -136.5 -297.5t-429.5 -119.5v-283h-204v289q-297 28 -430.5 172t-133.5 399zM537 1071q0 -43 32.5 -69.5t137.5 -65.5v240q-170 -16 -170 -105zM911 266q238 8 238 127q0 54 -60 93t-178 79v-299z" />
<glyph unicode="%" horiz-adv-x="2535" d="M143 1051q0 199 133 337t342 138q104 0 194 -38t151.5 -102t96 -151t34.5 -184q0 -199 -133.5 -337.5t-342.5 -138.5q-139 0 -248.5 65t-168 173t-58.5 238zM389 1051q0 -96 65 -163t164 -67q100 0 165 67t65 163q0 95 -65 162t-165 67t-164.5 -66.5t-64.5 -162.5z M809 -154l692 1801l232 -91l-693 -1800zM1442 332q0 199 133 337t342 138t342 -138t133 -337t-133 -337t-342 -138t-342 138t-133 337zM1688 332q0 -96 65 -163t164 -67t164 67t65 163t-64.5 162.5t-164.5 66.5t-164.5 -66.5t-64.5 -162.5z" />
<glyph unicode="&#x26;" horiz-adv-x="2070" d="M143 532q0 100 34.5 178.5t92 124.5t124.5 69.5t138 23.5q167 0 283 -127v82l-328 420v141h1119v-287h-668l498 -598q94 174 94 414h328q0 -400 -213 -664l282 -338l-258 -176l-250 320q-222 -135 -532 -135q-227 0 -392.5 61t-258.5 186.5t-93 304.5zM471 520 q0 -254 416 -254q204 0 348 84l-123 158q-94 120 -182.5 171.5t-200.5 51.5t-185 -55.5t-73 -155.5z" />
<glyph unicode="'" horiz-adv-x="532" d="M143 932v655h246v-655h-246z" />
<glyph unicode="(" horiz-adv-x="923" d="M143 569q0 172 38 316t114.5 259t199 192.5t285.5 107.5v-205q-96 -30 -166.5 -78t-113 -106.5t-68 -138t-34.5 -160.5t-9 -187t9 -187t34.5 -161t68 -138t113 -106.5t166.5 -78.5v-205q-162 30 -285 107.5t-199.5 193t-114.5 259.5t-38 316z" />
<glyph unicode=")" horiz-adv-x="923" d="M143 -102q96 30 166.5 78.5t113.5 106.5t68.5 138t34.5 161t9 187t-9 187t-34.5 160.5t-68.5 138t-113.5 106.5t-166.5 78v205q163 -30 285.5 -107.5t199 -192.5t114.5 -259t38 -316t-38 -316t-114.5 -259.5t-199.5 -193t-285 -107.5v205z" />
<glyph unicode="*" horiz-adv-x="1060" d="M102 1122l64 195l199 -64l104 -79l-39 122v209h205v-209l-41 -125l102 76l199 64l63 -195l-198 -65h-131l102 -74l123 -168l-166 -121l-121 168l-41 125l-39 -121l-122 -168l-166 121l123 168l106 76l-127 2z" />
<glyph unicode="+" d="M143 430v246h430v430h246v-430h430v-246h-430v-430h-246v430h-430z" />
<glyph unicode="," horiz-adv-x="643" d="M61 -352l201 725l238 -64l-201 -725z" />
<glyph unicode="-" d="M143 430v246h1106v-246h-1106z" />
<glyph unicode="." horiz-adv-x="737" d="M143 207q0 96 61 159.5t163 63.5q100 0 163.5 -64t63.5 -159q0 -98 -63.5 -162.5t-163.5 -64.5q-102 0 -163 64t-61 163z" />
<glyph unicode="/" horiz-adv-x="1128" d="M102 -133l693 1800l231 -90l-692 -1800z" />
<glyph unicode="0" horiz-adv-x="1554" d="M82 723q0 220 82 387t240.5 260.5t373.5 93.5q214 0 372.5 -93.5t240.5 -260.5t82 -387q0 -221 -82 -388.5t-240 -261t-373 -93.5q-324 0 -510 203.5t-186 539.5zM410 723q0 -102 22 -188l551 587q-83 56 -205 56q-175 0 -271.5 -117t-96.5 -338zM571 324q85 -58 207 -58 q175 0 271 117.5t96 339.5q0 98 -23 188z" />
<glyph unicode="1" horiz-adv-x="1187" d="M61 870q203 79 285 204.5t82 369.5h637v-1444h-328v1178l62 184h-82q-6 -88 -14.5 -155t-26 -140t-43 -129.5t-66 -113.5t-94.5 -100.5t-128.5 -82.5t-168.5 -68z" />
<glyph unicode="2" horiz-adv-x="1425" d="M82 782q0 142 34.5 256.5t96 193t148 131.5t187 77t216.5 24q263 0 421 -127t158 -358q0 -252 -185 -390q-145 -108 -465 -183q-107 -25 -509 -99v-82l205 62h954v-287h-1241v573q232 32 343 55q515 110 566 320q5 22 5 45q0 78 -59.5 131.5t-188.5 53.5 q-186 0 -272 -94.5t-86 -301.5h-328z" />
<glyph unicode="3" horiz-adv-x="1458" d="M61 551h328q0 -167 75 -226t271 -59q157 0 225 39t68 127q0 84 -52 126t-147 42h-200v287h200q179 0 179 145q0 75 -60.5 110.5t-212.5 35.5q-189 0 -257 -48.5t-68 -175.5h-328q0 109 32.5 196t90 145t140.5 96.5t179.5 55.5t210.5 17q131 0 240 -24.5t189.5 -72 t125.5 -122.5t45 -172q0 -63 -19 -110.5t-47 -76t-77 -50t-91.5 -31.5t-107.5 -21v-82q43 -6 69 -10.5t64.5 -12.5t62.5 -19t53.5 -27t47.5 -38t34.5 -51t24 -67.5t7.5 -85.5q0 -104 -48 -184t-133.5 -129t-196 -73.5t-243.5 -24.5q-116 0 -213 17.5t-184 59t-147 105.5 t-95 163t-35 226z" />
<glyph unicode="4" horiz-adv-x="1423" d="M102 244v596q260 40 410.5 195t169.5 409h328q-17 -357 -229 -585t-597 -308v-82l205 61h467v320h328v-320h157v-286h-157v-244h-328v244h-754z" />
<glyph unicode="5" horiz-adv-x="1499" d="M82 530h328q0 -134 82 -199t270 -65q168 0 237.5 65.5t69.5 205.5q0 231 -229 231q-178 0 -299 -154l-369 213v617h1110v-287h-782v-207l-62 -184l68 -39q114 328 432 328q199 0 329 -135t130 -375q0 -287 -168.5 -426t-466.5 -139q-147 0 -267.5 31.5t-214.5 95.5 t-146 172t-52 251z" />
<glyph unicode="6" horiz-adv-x="1480" d="M102 711q0 139 24.5 256t79 216t136.5 165t203 97.5t272 18.5l486 -41v-286l-486 41q-205 18 -322 -55t-161 -269l-82 -184h82q12 118 83.5 206.5t183 133.5t247.5 45q268 0 419.5 -140.5t151.5 -388.5q0 -245 -176.5 -395.5t-480.5 -150.5q-308 0 -484 183.5t-176 547.5 zM430 506q0 -101 85 -170.5t247 -69.5q173 0 251.5 59t78.5 201q0 126 -78 184t-244 58q-176 0 -258 -66t-82 -196z" />
<glyph unicode="7" horiz-adv-x="1247" d="M61 1157v287h1125v-473q-219 -89 -349.5 -213t-192.5 -307t-62 -451h-349q0 230 61 418t176.5 326.5t273 235.5t360.5 157v82l-184 -62h-859z" />
<glyph unicode="8" horiz-adv-x="1411" d="M41 406q0 73 23.5 130.5t62 94t95.5 62.5t114 39.5t129 21.5v82q-342 30 -342 294q0 76 34 135t89 96t132.5 60.5t157.5 33t171 9.5q90 0 169.5 -9.5t156.5 -33t132.5 -60.5t89 -96t33.5 -135q0 -264 -342 -294v-82q69 -8 128.5 -23.5t115 -43.5t94.5 -66t62.5 -93 t23.5 -122q0 -112 -47.5 -195t-136.5 -133t-208 -74t-271 -24t-272 24t-209.5 74t-137 133t-47.5 195zM369 457q0 -98 80.5 -144.5t257.5 -46.5q175 0 255 46.5t80 144.5q0 97 -80.5 144.5t-254.5 47.5q-176 0 -257 -47.5t-81 -144.5zM451 1057q0 -65 61 -93t195 -28 q133 0 193.5 28t60.5 93q0 64 -61 92.5t-193 28.5q-133 0 -194.5 -28.5t-61.5 -92.5z" />
<glyph unicode="9" horiz-adv-x="1480" d="M61 918q0 245 177 395.5t481 150.5q308 0 483.5 -183.5t175.5 -547.5q0 -139 -24.5 -256t-79 -216t-136 -165t-202.5 -97.5t-272 -18.5l-486 40v287l486 -41q205 -18 322 55t161 269l82 184h-82q-12 -118 -83.5 -206.5t-183 -133.5t-247.5 -45q-268 0 -420 140.5 t-152 388.5zM389 918q0 -126 78 -184t244 -58q176 0 258 66t82 196q0 101 -85 170.5t-247 69.5q-173 0 -251.5 -59t-78.5 -201z" />
<glyph unicode=":" horiz-adv-x="737" d="M143 207q0 96 61 159.5t163 63.5q100 0 163.5 -64t63.5 -159q0 -98 -63.5 -162.5t-163.5 -64.5q-102 0 -163 64t-61 163zM143 831q0 96 61 160t163 64q100 0 163.5 -64.5t63.5 -159.5q0 -98 -63.5 -162.5t-163.5 -64.5q-102 0 -163 64t-61 163z" />
<glyph unicode=";" horiz-adv-x="798" d="M61 -352l201 725l238 -64l-201 -725zM205 831q0 96 60.5 160t162.5 64q100 0 163.5 -64.5t63.5 -159.5q0 -98 -63.5 -162.5t-163.5 -64.5q-102 0 -162.5 64t-60.5 163z" />
<glyph unicode="&#x3c;" horiz-adv-x="1406" d="M143 383v246l1043 405l78 -233l-834 -295l834 -273l-78 -233z" />
<glyph unicode="=" d="M143 205v246h1106v-246h-1106zM143 655v246h1106v-246h-1106z" />
<glyph unicode="&#x3e;" horiz-adv-x="1406" d="M143 233l834 273l-834 295l78 233l1043 -405v-246l-1043 -383z" />
<glyph unicode="?" horiz-adv-x="1116" d="M102 1106q0 88 28 162.5t84.5 133t152 91.5t221.5 33q114 0 200 -29.5t133.5 -78.5t70 -105t22.5 -117q0 -68 -23.5 -126t-61.5 -100t-96 -76.5t-117.5 -57t-136 -40t-141.5 -28t-143 -18.5v-70l156 55h467v-205h-705v406q115 2 210.5 17t175 43.5t124.5 77.5t45 114 q0 67 -50 100t-134 33q-124 0 -180 -54.5t-56 -160.5h-246zM340 207q0 96 60.5 159.5t162.5 63.5q100 0 164 -64t64 -159q0 -98 -64 -162.5t-164 -64.5q-102 0 -162.5 64t-60.5 163z" />
<glyph unicode="@" horiz-adv-x="2265" d="M143 575q0 186 53 345t147 274.5t222 197t279.5 122t318.5 40.5q278 0 493.5 -102.5t340.5 -302.5t125 -471q0 -136 -31.5 -251t-91.5 -201.5t-155 -135.5t-216 -49h-110q-113 0 -113 133v21l61 163h-82q-31 -141 -134.5 -225t-256.5 -84q-206 0 -329 142.5t-123 386.5 q0 242 123 384t329 142q153 0 256.5 -84t134.5 -225h82l-61 184v104h246v-837h47q198 0 198 432q0 329 -187 500.5t-546 171.5q-176 0 -325.5 -59.5t-251.5 -163.5t-159.5 -246.5t-57.5 -305.5q0 -171 57.5 -318t160 -249.5t252 -153t324.5 -32.5l791 82v-205l-791 -82 q-204 -21 -391.5 40.5t-325.5 186t-220.5 315.5t-82.5 416zM786 578q0 -324 254 -324t254 324q0 321 -254 321t-254 -321z" />
<glyph unicode="A" horiz-adv-x="1591" d="M41 0l416 1444h676l417 -1444h-331l-132 463h-585l-129 -463h-332zM582 750h426l-172 612h-82z" />
<glyph unicode="B" horiz-adv-x="1435" d="M123 0v1444h508q126 0 216.5 -9.5t165.5 -33t120.5 -63.5t69.5 -101.5t24 -146.5q0 -43 -7 -78.5t-17 -62t-29 -48t-35.5 -35.5t-44 -25.5t-46.5 -17t-51.5 -10.5t-50.5 -6.5t-52 -4.5q-9 -1 -13 -1v-82q43 -2 73.5 -3.5t71.5 -6.5t70 -12.5t63.5 -20t57.5 -29.5t47 -42 t38 -56.5t22.5 -73.5t8.5 -92q0 -80 -23.5 -142t-69.5 -103.5t-104 -69t-138.5 -42t-160.5 -20.5t-182 -6h-532zM451 287h245q157 0 209 13q79 21 96 94q5 23 5 52q0 24 -3 44t-11 35t-15.5 27t-24 21t-28 15t-35.5 9.5t-39.5 6t-47 3.5t-50 1h-56.5h-245v-321zM451 895h221 q33 0 48.5 0.5t42.5 1.5t40 4.5t32 9.5t28 16t19 23.5t13.5 32.5t3.5 43t-3.5 43t-13.5 32.5t-19 23.5t-28 16t-32 9.5t-40 4.5t-42.5 1.5t-48.5 0.5h-221v-262z" />
<glyph unicode="C" horiz-adv-x="1658" d="M102 723q0 210 88.5 377.5t259 265.5t394.5 98q301 0 490.5 -154.5t221.5 -422.5h-327q-24 140 -127 215.5t-254 75.5q-193 0 -305.5 -118t-112.5 -337q0 -220 112.5 -338.5t305.5 -118.5q151 0 254 76.5t127 216.5h327q-32 -269 -221.5 -424t-490.5 -155q-169 0 -309 57 t-234.5 156.5t-146.5 235.5t-52 294z" />
<glyph unicode="D" horiz-adv-x="1544" d="M123 0v1444h532q89 0 165 -7t158.5 -27.5t148 -53.5t126.5 -88.5t101 -129.5t64 -179.5t24 -235.5t-24 -236t-64 -180t-101 -130t-126.5 -89t-148 -53.5t-158.5 -27.5t-165 -7h-532zM451 287h204q50 0 84 1t77 6t72 13.5t63 24.5t56 38t44 55t35 75t20.5 98.5t7.5 124.5 q0 61 -5.5 112.5t-18 91.5t-27 72t-37.5 55.5t-45 40.5t-54 28.5t-59.5 18t-67 10t-70.5 4.5t-75 1h-204v-870z" />
<glyph unicode="E" horiz-adv-x="1234" d="M123 0v1444h1030v-287h-702v-291h600v-286h-600v-293h702v-287h-1030z" />
<glyph unicode="F" horiz-adv-x="1234" d="M123 0v1444h1030v-287h-702v-416l655 41v-290l-655 -41v-451h-328z" />
<glyph unicode="G" horiz-adv-x="1820" d="M102 723q0 216 94.5 386t260 262.5t372.5 92.5q271 0 463 -150t224 -386h-328q-25 128 -111 189t-248 61q-399 0 -399 -455q0 -237 87 -347t267 -110q151 0 235.5 74.5t84.5 218.5h-334v246h754q85 0 129.5 -44.5t44.5 -129.5v-631h-328v498l62 225h-82 q-2 -351 -145.5 -547t-432.5 -196q-212 0 -364.5 94t-229 260.5t-76.5 388.5z" />
<glyph unicode="H" horiz-adv-x="1626" d="M123 0v1444h328v-598h725v598h327v-1444h-327v559h-725v-559h-328z" />
<glyph unicode="I" horiz-adv-x="1187" d="M102 0v287h328v870h-328v287h983v-287h-327v-870h327v-287h-983z" />
<glyph unicode="J" horiz-adv-x="1095" d="M41 0v287l367 -21q14 -1 27 -1q42 0 75 7q44 10 72 36.5t45 57.5t25.5 82.5t11 98t2.5 117.5v514l-435 -21v287l588 20h10q77 0 119 -43q45 -46 45 -131v-737q0 -106 -11 -186.5t-37.5 -149t-70.5 -114.5t-108.5 -77t-153.5 -42q-54 -7 -118 -7q-41 0 -86 3z" />
<glyph unicode="K" horiz-adv-x="1574" d="M123 0v1444h328v-512l604 512h479l-870 -723l870 -721h-479l-604 510v-510h-328z" />
<glyph unicode="L" horiz-adv-x="1193" d="M123 152v1292h328v-1178l702 21v-287l-854 -20h-7q-80 0 -124 42q-46 44 -45 130z" />
<glyph unicode="M" horiz-adv-x="2039" d="M123 0v1444h645l211 -1362h82l211 1362h645v-1444h-328v1157l62 205h-82l-232 -1362h-635l-231 1362h-82l62 -205v-1157h-328z" />
<glyph unicode="N" horiz-adv-x="1675" d="M123 0v1444h645l436 -1362h82l-61 205v1157h327v-1444h-645l-436 1362h-82l62 -205v-1157h-328z" />
<glyph unicode="O" horiz-adv-x="1677" d="M102 723q0 157 51.5 293t145 235t233 156t308.5 57q168 0 307 -57t232.5 -156t144.5 -235t51 -293q0 -158 -51 -294t-144.5 -235.5t-232.5 -156.5t-307 -57q-169 0 -308.5 57t-233 156.5t-145 235.5t-51.5 294zM430 723q0 -214 105 -335.5t305 -121.5t303.5 121.5 t103.5 335.5q0 212 -104 333.5t-303 121.5q-200 0 -305 -121.5t-105 -333.5z" />
<glyph unicode="P" horiz-adv-x="1366" d="M123 0v1444h518q84 0 151 -5t135.5 -19t120 -37.5t98 -62t75.5 -91t46 -126t17 -165.5t-17 -166t-46 -126.5t-75.5 -91t-98 -62.5t-120 -38t-135.5 -19t-151 -5h-190v-430h-328zM451 717h211q54 0 90 2.5t72.5 10t58.5 22.5t40 39.5t25.5 60.5t7.5 86q0 49 -7.5 85 t-25.5 60t-40 39t-58.5 22.5t-72.5 10t-90 2.5h-211v-440z" />
<glyph unicode="Q" horiz-adv-x="1710" d="M102 723q0 156 54.5 292.5t152 235.5t240 156t311.5 57q341 0 548.5 -205t207.5 -536q0 -119 -26.5 -226t-70.5 -189t-106.5 -153.5t-129 -122.5t-144.5 -93q87 6 174 6q75 0 149 -5q160 -9 412 -42v-287q-280 39 -511 49q-91 3 -179 3q-133 0 -258 -9q-205 -14 -475 -53 l-27 266q5 0 70.5 6.5t81 8t77.5 8.5t88 12.5t81 15t88.5 20t79.5 24.5t84.5 31.5t74.5 37.5l-45 73q-62 -51 -144.5 -77.5t-218.5 -26.5q-127 0 -243 51.5t-204 143.5t-140 229.5t-52 298.5zM430 723q0 -211 114 -334t316 -123t315 123t113 334q0 209 -113 332t-315 123 t-316 -123t-114 -332z" />
<glyph unicode="R" horiz-adv-x="1466" d="M123 0v1444h559q110 0 200 -10.5t174.5 -38.5t142 -72.5t92 -116.5t34.5 -166q0 -281 -367 -323v-82h211q85 0 129.5 -44.5t44.5 -129.5v-461h-327v508h-565v-508h-328zM451 795h231q75 0 109.5 1.5t83.5 10t69.5 27t36.5 53.5t16 88t-16 88.5t-36.5 54t-69.5 27.5 t-83.5 10.5t-109.5 1.5h-231v-362z" />
<glyph unicode="S" horiz-adv-x="1456" d="M61 557h328q0 -164 89.5 -227.5t307.5 -63.5q151 0 216 32.5t65 94.5q0 68 -112 122q-54 26 -246 91q-16 6 -29 10q-228 76 -317 122q-165 85 -213 211q-23 60 -23 134q0 185 144.5 283t422.5 98q161 0 285.5 -39.5t201.5 -109.5t115.5 -161.5t38.5 -201.5h-327 q0 64 -23.5 109t-67.5 70t-98 36t-125 11q-239 0 -239 -107q0 -35 19.5 -57t73 -46.5t173.5 -64.5q222 -75 285 -101q280 -115 357 -268q32 -64 32 -137q0 -196 -149.5 -306.5t-469.5 -110.5q-192 0 -330.5 38.5t-222.5 114t-123 180t-39 244.5z" />
<glyph unicode="T" horiz-adv-x="1394" d="M61 1157v287h1272v-287h-471v-1157h-327v1157h-474z" />
<glyph unicode="U" horiz-adv-x="1468" d="M82 537v907h328v-762q0 -55 1.5 -92.5t6.5 -81t15 -72t25.5 -58.5t40 -48.5t57 -34t77 -22.5t100.5 -7t100.5 7t77.5 22t57.5 34t40.5 48.5t26 59t15.5 72t7 81t1.5 92.5v762h327v-907q0 -271 -166.5 -414t-486.5 -143t-485.5 143t-165.5 414z" />
<glyph unicode="V" horiz-adv-x="1591" d="M41 1444h332l381 -1362h82l383 1362h331l-417 -1444h-676z" />
<glyph unicode="W" horiz-adv-x="2392" d="M41 1444h317l230 -1362h82l178 1362h696l178 -1362h82l230 1362h317l-248 -1444h-680l-186 1362h-82l-186 -1362h-680z" />
<glyph unicode="X" horiz-adv-x="1615" d="M41 0l487 682v82l-487 680h377l389 -553l391 553h377l-490 -680v-82l490 -682h-377l-391 555l-389 -555h-377z" />
<glyph unicode="Y" horiz-adv-x="1480" d="M41 1444h350l307 -602v-185h82v185l310 602h350l-537 -979v-465h-328v465z" />
<glyph unicode="Z" horiz-adv-x="1366" d="M82 0v604l1120 533v82l-184 -62h-936v287h1202v-604l-1120 -533v-82l184 62h936v-287h-1202z" />
<glyph unicode="[" horiz-adv-x="944" d="M143 -307v1751h658v-205h-410v-1341h410v-205h-658z" />
<glyph unicode="\" horiz-adv-x="1128" d="M102 1577l232 90l692 -1800l-231 -90z" />
<glyph unicode="]" horiz-adv-x="944" d="M143 -102h410v1341h-410v205h658v-1751h-658v205z" />
<glyph unicode="^" horiz-adv-x="1169" d="M143 750l197 694h491l195 -694h-262l-137 612h-82l-139 -612h-263z" />
<glyph unicode="_" horiz-adv-x="1310" d="M102 -41h1106v-246h-1106v246z" />
<glyph unicode="`" horiz-adv-x="1140" d="M143 1313l56 233l798 -176l-55 -233z" />
<glyph unicode="a" horiz-adv-x="1318" d="M82 283q0 137 95 215.5t319 109.5l325 45q0 65 -51.5 100t-155.5 35q-98 0 -151 -39t-53 -110h-308q0 128 68 223.5t183.5 144t260.5 48.5q110 0 204 -27.5t169.5 -83t118.5 -149.5t43 -217v-291h149v-287h-227q-73 0 -113 40t-40 114v20l51 123h-82q-16 -70 -43.5 -123 t-76 -99t-126 -70.5t-182.5 -24.5q-92 0 -162.5 22t-110 54t-64 75t-32.5 79t-8 73zM410 344q0 -41 32.5 -59.5t79.5 -18.5q136 0 217.5 54.5t81.5 148.5l-264 -37q-81 -12 -114 -29t-33 -59z" />
<glyph unicode="b" horiz-adv-x="1409" d="M123 0v1505h328v-534l-62 -185h82q22 57 51 101t75.5 84t118 62t163.5 22q144 0 247.5 -74t152 -193.5t48.5 -269.5q0 -111 -28.5 -207.5t-83 -171t-141 -117t-195.5 -42.5q-74 0 -135.5 15t-103.5 39.5t-76 60.5t-55 72t-38 81h-82l62 -185v-63h-328zM451 518 q0 -252 274 -252t274 252q0 250 -274 250t-274 -250z" />
<glyph unicode="c" horiz-adv-x="1284" d="M82 518q0 253 156 395t409 142q107 0 204 -29t174 -84t124.5 -142t52.5 -194h-328q-9 71 -70 116.5t-157 45.5q-116 0 -176.5 -65t-60.5 -185q0 -121 60.5 -186.5t176.5 -65.5q96 0 157 45.5t70 116.5h328q-5 -107 -52.5 -193.5t-124.5 -141.5t-173.5 -84t-204.5 -29 q-166 0 -292.5 61.5t-199.5 184.5t-73 292z" />
<glyph unicode="d" horiz-adv-x="1409" d="M82 518q0 150 48.5 269.5t152 193.5t247.5 74q92 0 163.5 -22t118 -62t75.5 -84t51 -101h82l-62 185v534h328v-1505h-328v63l62 185h-82q-17 -45 -38 -81t-55 -72t-76 -60.5t-103.5 -39.5t-135.5 -15q-109 0 -195.5 42.5t-141 117t-83 171t-28.5 207.5zM410 518 q0 -252 274 -252t274 252q0 250 -274 250t-274 -250z" />
<glyph unicode="e" horiz-adv-x="1292" d="M82 530q0 243 150 384t395 141t396 -136t151 -368v-102h-785q0 -93 69 -148t204 -55q88 0 147 31t74 88h327q-6 -47 -29.5 -97.5t-69.5 -102.5t-107 -92.5t-150 -66.5t-192 -26q-144 0 -257 44.5t-182.5 121t-105 174.5t-35.5 210zM389 633h477q0 67 -56.5 111t-182.5 44 t-182 -44t-56 -111z" />
<glyph unicode="f" horiz-adv-x="962" d="M61 0v287h197v461h-197v286h197v37q0 212 126 323t382 111h176v-286h-217q-73 0 -106 -36.5t-33 -121.5v-27h299v-286h-299v-461h299v-287h-824z" />
<glyph unicode="g" horiz-adv-x="1445" d="M82 651q0 99 45 177.5t125 127t185 74t229 25.5q258 0 409 -111q41 54 107 72t153 18h90v-286h-69q-65 0 -96 -19q10 -14 19 -47.5t9 -71.5q0 -139 -119.5 -237.5t-347.5 -175.5q33 2 64 2q57 0 107 -7q79 -11 144.5 -40.5t102.5 -86t37 -135.5q0 -46 -10.5 -84 t-33.5 -68.5t-53.5 -55t-78 -43.5t-99 -33t-124 -24t-145 -16t-171 -9.5t-193 -5t-218.5 -1.5v287q517 0 656.5 20t139.5 103q0 35 -25.5 57t-77 29t-106.5 7t-139.5 -10.5t-147.5 -20t-157 -25.5q-24 -4 -35 -6l-35 184q438 46 637 94v82q-114 -41 -226 -58 q-69 -11 -134 -11q-40 0 -78 4q-99 11 -175 47.5t-120.5 107.5t-44.5 170zM410 631q0 -137 276 -137q144 0 209.5 34.5t65.5 102.5q0 137 -275 137q-276 0 -276 -137z" />
<glyph unicode="h" horiz-adv-x="1388" d="M123 0v1505h328v-596l-62 -184h82q33 147 133 238.5t258 91.5q200 0 312 -129.5t112 -366.5v-559h-328v508q0 142 -47.5 201t-165.5 59q-142 0 -218 -88.5t-76 -296.5v-383h-328z" />
<glyph unicode="i" horiz-adv-x="1024" d="M82 0v287h293v473l-252 -12v286l389 21h14q76 -1 118 -41q46 -44 46 -131v-596h293v-287h-901zM313 1300q0 78 51 121t142 43t143.5 -43t52.5 -121q0 -79 -52 -121t-144 -42t-142.5 42t-50.5 121z" />
<glyph unicode="j" horiz-adv-x="710" d="M20 -410l218 357q34 54 34 139v674l-252 -12v286l416 15h11q77 0 119 -41q46 -44 46 -129v-818q0 -77 -34 -139l-189 -332h-369zM229 1300q0 78 51 121t142 43t143.5 -43t52.5 -121q0 -79 -52 -121t-144 -42t-142.5 42t-50.5 121z" />
<glyph unicode="k" horiz-adv-x="1370" d="M123 0v1505h328v-874l473 217l-4 186h327v-225q0 -74 -31 -123.5t-98 -81.5l-160 -74l351 -530h-373l-258 399l-227 -106v-293h-328z" />
<glyph unicode="l" horiz-adv-x="1003" d="M61 0v287h287v944l-246 -12v286l396 15h11q78 0 121 -42q46 -44 46 -130v-1061h287v-287h-902z" />
<glyph unicode="m" horiz-adv-x="1953" d="M123 0v1034h328v-104l-62 -185h82q33 148 113 229t223 81q138 0 210 -81.5t97 -228.5h60q33 149 111.5 229.5t221.5 80.5q96 0 164.5 -40.5t107 -114t55.5 -162.5t17 -199v-539h-327v516q0 148 -31.5 200t-122.5 52q-65 0 -109 -27.5t-67.5 -83t-33 -125.5t-9.5 -170 v-362h-328v516q0 148 -31.5 200t-121.5 52q-65 0 -109 -27.5t-67.5 -83t-33 -125.5t-9.5 -170v-362h-328z" />
<glyph unicode="n" horiz-adv-x="1388" d="M123 0v1034h328v-125l-62 -184h82q33 147 133 238.5t258 91.5q200 0 312 -129.5t112 -366.5v-559h-328v508q0 142 -47.5 201t-165.5 59q-142 0 -218 -88.5t-76 -296.5v-383h-328z" />
<glyph unicode="o" horiz-adv-x="1329" d="M82 518q0 132 45 235.5t125 168.5t185 99t229 34q123 0 227.5 -34t184 -99t124.5 -168.5t45 -235.5t-45 -236t-124.5 -169.5t-184 -99t-227.5 -33.5q-124 0 -229 33.5t-185 99t-125 169.5t-45 236zM410 518q0 -127 67.5 -189.5t188.5 -62.5q120 0 187 62.5t67 189.5 q0 125 -67.5 187.5t-186.5 62.5q-121 0 -188.5 -62.5t-67.5 -187.5z" />
<glyph unicode="p" horiz-adv-x="1409" d="M123 -389v1423h328v-63l-62 -185h82q22 57 51 101t75.5 84t118 62t163.5 22q144 0 247.5 -74.5t152 -194.5t48.5 -270q0 -111 -28.5 -207.5t-83 -170t-141 -116t-195.5 -42.5q-74 0 -135.5 15t-103.5 39.5t-76 60.5t-55 72t-38 81h-82l62 -185v-452h-328zM451 516 q0 -250 274 -250t274 250q0 252 -274 252t-274 -252z" />
<glyph unicode="q" horiz-adv-x="1409" d="M82 516q0 150 48.5 270t152 194.5t247.5 74.5q92 0 163.5 -22t118 -62t75.5 -84t51 -101h82l-62 185v63h328v-1423h-328v452l62 185h-82q-17 -45 -38 -81t-55 -72t-76 -60.5t-103.5 -39.5t-135.5 -15q-109 0 -195.5 42.5t-141 116t-83 170t-28.5 207.5zM410 516 q0 -250 274 -250t274 250q0 252 -274 252t-274 -252z" />
<glyph unicode="r" horiz-adv-x="997" d="M123 0v879q-1 85 45 129q44 43 124 43h7l678 -17v-286l-526 12v-760h-328z" />
<glyph unicode="s" horiz-adv-x="1128" d="M61 375h328q0 -67 53.5 -108.5t173.5 -41.5q144 0 144 70q0 35 -45 59q-29 15 -178 64q-16 5 -58 18.5t-61 19.5t-57.5 20.5t-58 24.5t-51 27t-48 32.5t-37.5 38.5t-31.5 46.5t-18 54t-7.5 64.5q0 138 118 214.5t332 76.5q127 0 224 -30t155 -82.5t86.5 -118.5t28.5 -144 h-328q0 58 -43 93.5t-125 35.5q-121 0 -121 -59q0 -36 88 -73q43 -17 178 -61q162 -53 216 -80q128 -63 158 -168q11 -38 11 -83q0 -141 -114 -223t-367 -82q-277 0 -411 103.5t-134 291.5z" />
<glyph unicode="t" horiz-adv-x="1036" d="M20 748v286h246v195l328 102v-297h340v-286h-340v-482l381 21v-287l-535 -20h-10q-77 0 -119 43q-45 46 -45 131v594h-246z" />
<glyph unicode="u" horiz-adv-x="1368" d="M102 475v559h328v-508q0 -142 47.5 -201t165.5 -59q143 0 219 88.5t76 296.5v383h328v-1034h-328v125l61 184h-81q-33 -146 -133.5 -237.5t-258.5 -91.5q-200 0 -312 129t-112 366z" />
<glyph unicode="v" horiz-adv-x="1243" d="M20 1034h324l238 -952h82l235 952h324l-262 -1034h-676z" />
<glyph unicode="w" horiz-adv-x="1941" d="M20 1034h314l133 -952h82l80 952h684l80 -952h82l135 952h311l-145 -1034h-684l-80 952h-82l-80 -952h-684z" />
<glyph unicode="x" horiz-adv-x="1380" d="M61 0l394 477v82l-394 475h390l239 -332l240 332h389l-393 -475v-82l393 -477h-389l-240 334l-239 -334h-390z" />
<glyph unicode="y" horiz-adv-x="1376" d="M61 1034h369l227 -569v-164h82v164l226 569h370l-473 -973v-319q0 -86 -46 -130q-42 -42 -119 -42h-11l-506 14v287l355 -6v196z" />
<glyph unicode="z" horiz-adv-x="1181" d="M82 0v553l936 174v82l-184 -61h-752v286h1018v-553l-936 -174v-82l184 62h752v-287h-1018z" />
<glyph unicode="{" horiz-adv-x="1359" d="M164 573q0 159 89.5 245.5t256.5 86.5q160 0 309 -149q0 73 -22.5 127t-71 92.5t-106 65t-144.5 53.5v350h721v-205h-455l-184 61v-81q105 -25 173.5 -47.5t129 -55t94 -73t52 -97.5t18.5 -133q0 -107 -70 -240q70 -133 70 -239q0 -76 -18.5 -133t-52 -97.5t-94 -73 t-129 -55t-173.5 -47.5v-82l184 62h455v-205h-721v350q87 27 144.5 53.5t106 65t71 92.5t22.5 127q-149 -149 -309 -149q-155 0 -250.5 88t-95.5 243zM410 573q0 -70 39.5 -108.5t99.5 -38.5q49 0 104 42t99 105q-44 64 -99 106t-104 42q-60 0 -99.5 -38.5t-39.5 -109.5z " />
<glyph unicode="|" horiz-adv-x="532" d="M143 -303v2050h246v-2050h-246z" />
<glyph unicode="}" horiz-adv-x="1318" d="M143 -92h455l184 -62v82q-105 25 -173.5 47.5t-129 55t-94 73t-52 97.5t-18.5 133q0 106 70 239q-70 133 -70 240q0 76 18.5 133t52 97.5t94 73t129 55t173.5 47.5v81l-184 -61h-455v205h721v-350q-87 -27 -144.5 -53.5t-106 -65t-71 -92.5t-22.5 -127q149 149 309 149 q167 0 257 -86.5t90 -245.5q0 -155 -95.5 -243t-251.5 -88q-160 0 -309 149q0 -73 22.5 -127t71 -92.5t106 -65t144.5 -53.5v-350h-721v205zM588 573q44 -63 99 -105t104 -42q60 0 99.5 38.5t39.5 108.5q0 71 -39.5 109.5t-99.5 38.5q-49 0 -104 -42t-99 -106z" />
<glyph unicode="~" horiz-adv-x="1368" d="M143 348q0 192 78.5 301t212.5 109q67 0 138 -25.5t119.5 -56.5t102 -56.5t89.5 -25.5q51 0 73.5 37t22.5 127h246q0 -192 -78.5 -301t-212.5 -109q-67 0 -138 25.5t-119.5 56.5t-102 56.5t-89.5 25.5q-51 0 -73.5 -37t-22.5 -127h-246z" />
<glyph unicode="&#xa1;" horiz-adv-x="739" d="M145 827q0 99 61 163.5t163 64.5q100 0 163.5 -65t63.5 -163q0 -95 -63.5 -159t-163.5 -64q-102 0 -163 63.5t-61 159.5zM207 -410l61 914h205l62 -914h-328z" />
<glyph unicode="&#xa2;" horiz-adv-x="1406" d="M143 733q0 224 124.5 362.5t332.5 166.5v485l203 -2v-481q194 -25 323 -140t138 -303h-328q-6 52 -40.5 90.5t-92.5 57.5l2 -473q57 19 91 57.5t40 89.5h328q-9 -188 -138 -302.5t-321 -139.5v-504l-201 2v502q-211 30 -336 168.5t-125 363.5zM471 733q0 -180 131 -233 v465q-131 -53 -131 -232z" />
<glyph unicode="&#xa3;" horiz-adv-x="1388" d="M143 0v428q48 12 78.5 20.5t64 20t52.5 23t38 27.5t28.5 35.5t15.5 45t6 57.5h-283v205h170q-36 39 -57 67.5t-40 82t-19 116.5q0 73 36.5 130.5t94.5 93t135 58t154.5 30t156.5 4.5l471 -21v-286l-491 20q-113 5 -171.5 -15.5t-58.5 -84.5q0 -33 16 -67t34 -56.5 t51 -58.5l4.5 -4.5t3.5 -4t4 -4.5h526v-205h-413q4 -32 4 -55q0 -54 -20 -96.5t-55.5 -70.5t-84.5 -49t-107 -34.5t-121.5 -24t-129.5 -19.5q-7 -1 -11 -1v-82l185 62h835v-287h-1102z" />
<glyph unicode="&#xa4;" horiz-adv-x="1589" d="M143 213l252 252q-69 113 -69 256t69 256l-252 252l144 143l250 -250q117 74 264 74q144 0 256 -70l246 246l143 -143l-244 -244q74 -120 74 -264t-74 -264l244 -244l-143 -143l-246 245q-110 -69 -256 -69q-149 0 -264 73l-250 -249zM571 721q0 -95 65 -162t165 -67 t164.5 66.5t64.5 162.5t-64.5 162.5t-164.5 66.5t-165 -67t-65 -162z" />
<glyph unicode="&#xa5;" horiz-adv-x="1685" d="M143 1444h351l307 -602v-185h82v185l309 602h350l-430 -787h283v-204h-389v-82h389v-205h-389v-166h-328v166h-389v205h389v82h-389v204h284z" />
<glyph unicode="&#xa6;" horiz-adv-x="532" d="M143 -303v758h246v-758h-246zM143 989v758h246v-758h-246z" />
<glyph unicode="&#xa7;" horiz-adv-x="1265" d="M143 729q0 70 47.5 128.5t151.5 82.5q-115 49 -157 102.5t-42 131.5q0 138 118.5 214t332.5 76q127 0 224 -30t154.5 -82t86 -118t28.5 -144h-327q0 58 -43 93.5t-125 35.5q-58 0 -89.5 -15.5t-31.5 -42.5q0 -12 5.5 -22.5t19.5 -20t27.5 -17t40.5 -16.5t48 -15.5 t59.5 -18.5t65.5 -21q170 -56 230 -87q131 -68 151 -180q4 -23 4 -48q0 -70 -47 -128.5t-151 -82.5q114 -49 156 -102.5t42 -131.5q0 -138 -118 -214t-332 -76q-127 0 -224 30t-155 82t-86.5 118t-28.5 144h328q0 -58 43 -93.5t125 -35.5q58 0 89.5 15.5t31.5 42.5 q0 12 -5.5 22.5t-19.5 20t-28 17t-41 16.5l-48 16t-59.5 18.5t-65.5 20.5q-170 56 -230 87q-131 68 -151 180q-4 23 -4 48zM451 764q0 -47 44.5 -79.5t129.5 -59.5q86 -29 138 -16.5t52 69.5q0 47 -42.5 76t-133.5 61q-85 32 -136.5 20t-51.5 -71z" />
<glyph unicode="&#xa8;" horiz-adv-x="1228" d="M143 1300q0 78 52.5 121t150.5 43t152.5 -43t54.5 -121q0 -79 -54 -121t-153 -42q-98 0 -150.5 42t-52.5 121zM676 1300q0 78 52.5 121t150.5 43t152 -43t54 -121q0 -79 -53.5 -121t-152.5 -42q-98 0 -150.5 42t-52.5 121z" />
<glyph unicode="&#xa9;" horiz-adv-x="2326" d="M143 575q0 211 71.5 397t201 324t323 218.5t424.5 80.5t424.5 -80.5t323 -218.5t201 -324t71.5 -397q0 -168 -45 -322t-133 -280.5t-210 -220t-284 -145t-348 -51.5t-348 51.5t-284 145t-210 220t-133 280.5t-45 322zM348 575q0 -165 57.5 -313t160.5 -259.5t258 -177 t339 -65.5t339 65.5t258 177t160.5 259.5t57.5 313t-57.5 313t-160.5 260t-258 177.5t-339 65.5t-339 -65.5t-258 -177.5t-160.5 -260t-57.5 -313zM604 578q0 168 73 290.5t199.5 184t292.5 61.5q108 0 204.5 -29t173.5 -84t124.5 -141.5t52.5 -193.5h-327q-9 71 -70.5 116 t-157.5 45q-116 0 -176.5 -64.5t-60.5 -184.5q0 -121 60.5 -186.5t176.5 -65.5q96 0 157.5 45t70.5 116h327q-5 -107 -52.5 -193.5t-124.5 -141.5t-173.5 -84t-204.5 -29q-254 0 -409.5 142.5t-155.5 396.5z" />
<glyph unicode="&#xab;" horiz-adv-x="1734" d="M143 508l654 649l180 -164l-485 -485l485 -488l-180 -163zM758 508l653 649l180 -164l-485 -485l485 -488l-180 -163z" />
<glyph unicode="&#xac;" d="M143 604v246h1106v-551h-245v305h-861z" />
<glyph unicode="&#xad;" d="M143 430v246h1106v-246h-1106z" />
<glyph unicode="&#xae;" horiz-adv-x="1499" d="M143 1051q0 100 26 191t77.5 166.5t124 131t169.5 86.5t210 31q186 0 325.5 -82.5t210 -218.5t70.5 -305q0 -126 -41.5 -236t-117.5 -192.5t-191.5 -130.5t-255.5 -48t-256 48t-192 130.5t-117.5 192.5t-41.5 236zM307 1051q0 -90 29.5 -170t84.5 -141t140 -96.5 t189 -35.5q138 0 240 61.5t152 161t50 220.5t-50 220t-152 160.5t-240 61.5q-104 0 -189 -35.5t-140 -96.5t-84.5 -140.5t-29.5 -169.5zM485 768v575h254q51 0 96.5 -7t93.5 -23.5t76.5 -51.5t28.5 -85q0 -38 -14.5 -64.5t-41.5 -40.5t-54 -21t-64 -10v-41h123q51 0 51 -51 v-180h-155v160h-238v-160h-156zM641 1083h98q40 0 59.5 1t41.5 6t30.5 16.5t8.5 30.5t-8.5 29.5t-31 15t-41 5.5t-59.5 1h-98v-105z" />
<glyph unicode="&#xaf;" horiz-adv-x="1167" d="M143 1229v246h881v-242z" />
<glyph unicode="&#xb0;" horiz-adv-x="1236" d="M143 1051q0 199 133 337t342 138q104 0 194 -38t151.5 -102t96 -151t34.5 -184q0 -199 -133.5 -337.5t-342.5 -138.5q-139 0 -248.5 65t-168 173t-58.5 238zM389 1051q0 -96 65 -163t164 -67q100 0 165 67t65 163q0 95 -65 162t-165 67t-164.5 -66.5t-64.5 -162.5z" />
<glyph unicode="&#xb1;" d="M143 0v246h1106v-246h-1106zM143 655v246h430v285h246v-285h430v-246h-430v-286h-246v286h-430z" />
<glyph unicode="&#xb4;" horiz-adv-x="1140" d="M143 1370l799 176l55 -233l-798 -176z" />
<glyph unicode="&#xb6;" horiz-adv-x="1523" d="M143 1237q0 74 12.5 137t40 121.5t75 103.5t115 79t163 51.5t215.5 17.5h246v-2050h-246v1030q-120 0 -215.5 17.5t-163 51.5t-115 79t-75 103.5t-40 121.5t-12.5 137zM1135 -303v2050h245v-2050h-245z" />
<glyph unicode="&#xb7;" horiz-adv-x="737" d="M143 520q0 96 61 159.5t163 63.5q100 0 163.5 -64t63.5 -159q0 -98 -63.5 -162.5t-163.5 -64.5q-102 0 -163 64t-61 163z" />
<glyph unicode="&#xb8;" horiz-adv-x="858" d="M143 -246h74q148 -1 200 6.5t52 40.5q0 15 -13 25t-34 10q-55 0 -160 -37l-104 80l55 121h246l-111 -123q87 41 191 41q47 0 83.5 -9.5t64.5 -39.5t28 -78q0 -42 -17 -75.5t-45 -56.5t-72.5 -39.5t-90 -26t-107.5 -15t-116 -7t-124 -1.5v184z" />
<glyph unicode="&#xbb;" horiz-adv-x="1734" d="M143 20l486 488l-486 485l181 164l653 -649l-653 -651zM758 20l485 488l-485 485l180 164l653 -649l-653 -651z" />
<glyph unicode="&#xbc;" horiz-adv-x="2447" d="M61 1221q68 56 96.5 92.5t45 91t28.5 162.5h463v-973h-245v747l40 144h-61q-5 -78 -18 -143t-40.5 -136t-79.5 -125.5t-124 -85.5zM694 -133l692 1800l232 -90l-692 -1800zM1556 123v504q326 61 373 346h246q-10 -97 -46.5 -185.5t-103.5 -170t-176.5 -141.5t-251.5 -87 v-61l144 41h266v161h246v-161h133v-246h-133v-123h-246v123h-451z" />
<glyph unicode="&#xbd;" horiz-adv-x="2416" d="M61 1221q68 56 96.5 92.5t45 91t28.5 162.5h463v-973h-245v747l40 144h-61q-5 -78 -18 -143t-40.5 -136t-79.5 -125.5t-124 -85.5zM694 -133l692 1800l232 -90l-692 -1800zM1536 559q0 87 27 164t79.5 138t138.5 96.5t195 35.5q100 0 176 -28.5t119 -77.5t63.5 -107 t20.5 -123q0 -86 -35.5 -152.5t-94 -110.5t-149.5 -76.5t-186 -50.5t-219 -31v-62l144 31h540v-205h-766v379q4 1 35 4.5t53 6.5t62.5 10t71 14.5t71 20.5t70.5 27t61 34.5t51 43.5t32.5 53t12.5 64q0 56 -35.5 93.5t-115.5 37.5q-98 0 -137 -56t-39 -173h-246z" />
<glyph unicode="&#xbe;" horiz-adv-x="2596" d="M61 969h246q0 -57 14 -94.5t43.5 -56.5t63 -25.5t82.5 -6.5q85 0 126.5 24.5t41.5 92.5q0 33 -11 54.5t-33.5 31.5t-45 13.5t-56.5 3.5h-98v202h98q67 0 99.5 17.5t32.5 72.5q0 52 -36.5 72.5t-117.5 20.5q-96 0 -143.5 -28.5t-47.5 -102.5h-245q0 159 115 247t321 88 q199 0 300 -73.5t101 -186.5q0 -52 -18.5 -89t-54.5 -58.5t-73.5 -32.5t-92.5 -20v-62q37 -7 55 -11t50 -13t48.5 -18t38.5 -24.5t33 -34t19 -45t8 -59.5q0 -134 -105 -210t-309 -76q-212 0 -330.5 96.5t-118.5 290.5zM844 -133l692 1800l231 -90l-692 -1800zM1706 123v504 q326 61 373 346h245q-10 -97 -46.5 -185.5t-103 -170t-176 -141.5t-251.5 -87v-61l143 41h267v161h245v-161h133v-246h-133v-123h-245v123h-451z" />
<glyph unicode="&#xbf;" horiz-adv-x="1136" d="M123 -162q0 68 23.5 126t61.5 100t96 76.5t117.5 57t135.5 40.5t141.5 28.5t143.5 18.5v69l-156 -55h-467v205h705v-406q-115 -2 -210.5 -17t-175 -43.5t-124.5 -77.5t-45 -114q0 -67 50 -100t134 -33q124 0 179.5 54.5t55.5 160.5h246q0 -89 -28 -163t-84.5 -132.5 t-151.5 -91.5t-221 -33q-114 0 -200 29.5t-133.5 78.5t-70 105t-22.5 117zM346 827q0 98 63.5 163t163.5 65q102 0 163 -64.5t61 -163.5q0 -96 -61 -159.5t-163 -63.5q-100 0 -163.5 64t-63.5 159z" />
<glyph unicode="&#xc0;" horiz-adv-x="1591" d="M41 0l416 1444h676l417 -1444h-331l-132 463h-585l-129 -463h-332zM389 1722l55 234l799 -176l-55 -234zM582 750h426l-172 612h-82z" />
<glyph unicode="&#xc1;" horiz-adv-x="1591" d="M41 0l416 1444h676l417 -1444h-331l-132 463h-585l-129 -463h-332zM348 1780l799 176l55 -234l-799 -176zM582 750h426l-172 612h-82z" />
<glyph unicode="&#xc2;" horiz-adv-x="1591" d="M41 0l416 1444h676l417 -1444h-331l-132 463h-585l-129 -463h-332zM354 1688l443 309l442 -309l-174 -164l-268 186l-269 -186zM582 750h426l-172 612h-82z" />
<glyph unicode="&#xc3;" horiz-adv-x="1591" d="M41 0l416 1444h676l417 -1444h-331l-132 463h-585l-129 -463h-332zM317 1638q0 180 80.5 285t220.5 105q52 0 97.5 -17t76.5 -41t58 -48t53.5 -41t50.5 -17q38 0 57 29t19 114h246q0 -179 -80.5 -284t-220.5 -105q-52 0 -97.5 17t-76.5 41t-58 48t-53.5 41t-50.5 17 q-38 0 -57 -29t-19 -115h-246zM582 750h426l-172 612h-82z" />
<glyph unicode="&#xc4;" horiz-adv-x="1591" d="M41 0l416 1444h676l417 -1444h-331l-132 463h-585l-129 -463h-332zM326 1710q0 78 52 121t150 43t152.5 -43t54.5 -121q0 -79 -54 -121.5t-153 -42.5q-98 0 -150 42t-52 122zM582 750h426l-172 612h-82zM858 1710q0 78 52.5 121t150.5 43t152.5 -43t54.5 -121 q0 -79 -54 -121.5t-153 -42.5q-98 0 -150.5 42.5t-52.5 121.5z" />
<glyph unicode="&#xc5;" horiz-adv-x="1591" d="M41 0l416 1444h676l417 -1444h-331l-132 463h-585l-129 -463h-332zM473 1798q0 124 85 188t237 64t237.5 -64t85.5 -188t-85.5 -188t-237.5 -64q-153 0 -237.5 63.5t-84.5 188.5zM582 750h426l-172 612h-82zM719 1798q0 -67 76 -67q77 0 77 67q0 66 -77 66q-76 0 -76 -66 z" />
<glyph unicode="&#xc6;" horiz-adv-x="2260" d="M41 0l743 1444h1395v-287h-702v-291h600v-286h-600v-293h702v-287h-1030v479h-516l-246 -479h-346zM780 766h369v596h-62z" />
<glyph unicode="&#xc7;" horiz-adv-x="1658" d="M102 723q0 210 88.5 377.5t259 265.5t394.5 98q301 0 490.5 -154.5t221.5 -422.5h-327q-24 140 -127 215.5t-254 75.5q-193 0 -305.5 -118t-112.5 -337q0 -220 112.5 -338.5t305.5 -118.5q151 0 254 76.5t127 216.5h327q-29 -249 -193.5 -400.5t-428.5 -174.5l-96 -107 q87 41 190 41q47 0 83.5 -9.5t64.5 -39.5t28 -78q0 -42 -17 -75.5t-44.5 -56.5t-72 -39.5t-90 -26t-107.5 -15t-116 -7t-124 -1.5v184h74q147 -1 199 6.5t52 40.5q0 15 -13 25t-34 10q-54 0 -159 -37l-105 80l51 113q-276 44 -436 244.5t-160 486.5z" />
<glyph unicode="&#xc8;" horiz-adv-x="1234" d="M123 0v1444h1030v-287h-702v-291h600v-286h-600v-293h702v-287h-1030zM231 1722l56 234l798 -176l-55 -234z" />
<glyph unicode="&#xc9;" horiz-adv-x="1234" d="M123 0v1444h1030v-287h-702v-291h600v-286h-600v-293h702v-287h-1030zM190 1780l799 176l55 -234l-798 -176z" />
<glyph unicode="&#xca;" horiz-adv-x="1234" d="M123 0v1444h1030v-287h-702v-291h600v-286h-600v-293h702v-287h-1030zM197 1688l442 309l442 -309l-174 -164l-268 186l-268 -186z" />
<glyph unicode="&#xcb;" horiz-adv-x="1234" d="M123 0v1444h1030v-287h-702v-291h600v-286h-600v-293h702v-287h-1030zM168 1710q0 78 52.5 121t150.5 43t152.5 -43t54.5 -121q0 -79 -54 -121.5t-153 -42.5q-98 0 -150.5 42.5t-52.5 121.5zM700 1710q0 78 52.5 121t150.5 43t152.5 -43t54.5 -121q0 -79 -54 -121.5 t-153 -42.5q-98 0 -150.5 42.5t-52.5 121.5z" />
<glyph unicode="&#xcc;" horiz-adv-x="1187" d="M102 0v287h328v870h-328v287h983v-287h-327v-870h327v-287h-983zM186 1722l56 234l798 -176l-55 -234z" />
<glyph unicode="&#xcd;" horiz-adv-x="1187" d="M102 0v287h328v870h-328v287h983v-287h-327v-870h327v-287h-983zM145 1780l799 176l55 -234l-798 -176z" />
<glyph unicode="&#xce;" horiz-adv-x="1187" d="M102 0v287h328v870h-328v287h983v-287h-327v-870h327v-287h-983zM152 1688l442 309l442 -309l-174 -164l-268 186l-268 -186z" />
<glyph unicode="&#xcf;" horiz-adv-x="1187" d="M102 0v287h328v870h-328v287h983v-287h-327v-870h327v-287h-983zM123 1710q0 78 52.5 121t150.5 43t152 -43t54 -121q0 -79 -53.5 -121.5t-152.5 -42.5q-98 0 -150.5 42.5t-52.5 121.5zM655 1710q0 78 52.5 121t150.5 43t152.5 -43t54.5 -121q0 -79 -54 -121.5 t-153 -42.5q-98 0 -150.5 42.5t-52.5 121.5z" />
<glyph unicode="&#xd0;" horiz-adv-x="1708" d="M102 625v245h185v574h532q89 0 165 -7t158.5 -27.5t148 -53.5t126.5 -88.5t101 -129.5t64 -179.5t24 -235.5t-24 -236t-64 -180t-101 -130t-126.5 -89t-148 -53.5t-158.5 -27.5t-165 -7h-532v625h-185zM614 287h205q50 0 84 1t77 6t72 13.5t63 24.5t56 38t44 55t35 75 t20.5 98.5t7.5 124.5q0 61 -5.5 112.5t-18 91.5t-27 72t-37.5 55.5t-45 40.5t-54 28.5t-59.5 18t-67 10t-70.5 4.5t-75 1h-205v-287h304v-245h-304v-338z" />
<glyph unicode="&#xd1;" horiz-adv-x="1675" d="M123 0v1444h645l436 -1362h82l-61 205v1157h327v-1444h-645l-436 1362h-82l62 -205v-1157h-328zM399 1638q0 180 80.5 285t220.5 105q52 0 97.5 -17t76.5 -41t58 -48t53.5 -41t50.5 -17q38 0 57 29t19 114h246q0 -179 -80.5 -284t-220.5 -105q-52 0 -97.5 17t-76.5 41 t-58 48t-53.5 41t-50.5 17q-38 0 -57 -29t-19 -115h-246z" />
<glyph unicode="&#xd2;" horiz-adv-x="1677" d="M102 723q0 157 51.5 293t145 235t233 156t308.5 57q168 0 307 -57t232.5 -156t144.5 -235t51 -293q0 -158 -51 -294t-144.5 -235.5t-232.5 -156.5t-307 -57q-169 0 -308.5 57t-233 156.5t-145 235.5t-51.5 294zM430 723q0 -214 105 -335.5t305 -121.5t303.5 121.5 t103.5 335.5q0 212 -104 333.5t-303 121.5q-200 0 -305 -121.5t-105 -333.5zM432 1722l55 234l799 -176l-55 -234z" />
<glyph unicode="&#xd3;" horiz-adv-x="1677" d="M102 723q0 157 51.5 293t145 235t233 156t308.5 57q168 0 307 -57t232.5 -156t144.5 -235t51 -293q0 -158 -51 -294t-144.5 -235.5t-232.5 -156.5t-307 -57q-169 0 -308.5 57t-233 156.5t-145 235.5t-51.5 294zM391 1780l799 176l55 -234l-799 -176zM430 723 q0 -214 105 -335.5t305 -121.5t303.5 121.5t103.5 335.5q0 212 -104 333.5t-303 121.5q-200 0 -305 -121.5t-105 -333.5z" />
<glyph unicode="&#xd4;" horiz-adv-x="1677" d="M102 723q0 157 51.5 293t145 235t233 156t308.5 57q168 0 307 -57t232.5 -156t144.5 -235t51 -293q0 -158 -51 -294t-144.5 -235.5t-232.5 -156.5t-307 -57q-169 0 -308.5 57t-233 156.5t-145 235.5t-51.5 294zM397 1688l443 309l442 -309l-174 -164l-268 186l-269 -186z M430 723q0 -214 105 -335.5t305 -121.5t303.5 121.5t103.5 335.5q0 212 -104 333.5t-303 121.5q-200 0 -305 -121.5t-105 -333.5z" />
<glyph unicode="&#xd5;" horiz-adv-x="1677" d="M102 723q0 157 51.5 293t145 235t233 156t308.5 57q168 0 307 -57t232.5 -156t144.5 -235t51 -293q0 -158 -51 -294t-144.5 -235.5t-232.5 -156.5t-307 -57q-169 0 -308.5 57t-233 156.5t-145 235.5t-51.5 294zM360 1638q0 179 81 284.5t221 105.5q52 0 97.5 -17 t76.5 -41t57.5 -48t53 -41t50.5 -17q38 0 57 29t19 114h246q0 -179 -80.5 -284t-220.5 -105q-52 0 -97.5 17t-76.5 41t-58 48t-53.5 41t-50.5 17q-38 0 -57 -29t-19 -115h-246zM430 723q0 -214 105 -335.5t305 -121.5t303.5 121.5t103.5 335.5q0 212 -104 333.5t-303 121.5 q-200 0 -305 -121.5t-105 -333.5z" />
<glyph unicode="&#xd6;" horiz-adv-x="1677" d="M102 723q0 157 51.5 293t145 235t233 156t308.5 57q168 0 307 -57t232.5 -156t144.5 -235t51 -293q0 -158 -51 -294t-144.5 -235.5t-232.5 -156.5t-307 -57q-169 0 -308.5 57t-233 156.5t-145 235.5t-51.5 294zM369 1710q0 78 52 121t150 43t152.5 -43t54.5 -121 q0 -79 -54 -121.5t-153 -42.5q-98 0 -150 42t-52 122zM430 723q0 -214 105 -335.5t305 -121.5t303.5 121.5t103.5 335.5q0 212 -104 333.5t-303 121.5q-200 0 -305 -121.5t-105 -333.5zM901 1710q0 78 52.5 121t150.5 43t152.5 -43t54.5 -121q0 -79 -54 -121.5t-153 -42.5 q-98 0 -150.5 42.5t-52.5 121.5z" />
<glyph unicode="&#xd7;" horiz-adv-x="1243" d="M143 227l306 305l-306 304l174 174l306 -303l303 303l174 -174l-303 -304l303 -305l-174 -174l-303 305l-306 -305z" />
<glyph unicode="&#xd8;" horiz-adv-x="1677" d="M102 723q0 157 51.5 293t145 235t233 156t308.5 57q155 0 282 -47l99 168l176 -102l-94 -164q131 -100 201.5 -254.5t70.5 -341.5q0 -158 -51 -294t-144.5 -235.5t-232.5 -156.5t-307 -57q-161 0 -289 49l-98 -170l-172 100l96 166q-132 100 -203.5 255.5t-71.5 342.5z M430 723q0 -215 100 -330l445 768q-70 17 -135 17q-200 0 -305 -121.5t-105 -333.5zM700 285q65 -19 140 -19q200 0 303.5 121.5t103.5 335.5q0 212 -100 330z" />
<glyph unicode="&#xd9;" horiz-adv-x="1468" d="M82 537v907h328v-762q0 -55 1.5 -92.5t6.5 -81t15 -72t25.5 -58.5t40 -48.5t57 -34t77 -22.5t100.5 -7t100.5 7t77.5 22t57.5 34t40.5 48.5t26 59t15.5 72t7 81t1.5 92.5v762h327v-907q0 -271 -166.5 -414t-486.5 -143t-485.5 143t-165.5 414zM326 1722l55 234l799 -176 l-56 -234z" />
<glyph unicode="&#xda;" horiz-adv-x="1468" d="M82 537v907h328v-762q0 -55 1.5 -92.5t6.5 -81t15 -72t25.5 -58.5t40 -48.5t57 -34t77 -22.5t100.5 -7t100.5 7t77.5 22t57.5 34t40.5 48.5t26 59t15.5 72t7 81t1.5 92.5v762h327v-907q0 -271 -166.5 -414t-486.5 -143t-485.5 143t-165.5 414zM285 1780l798 176l56 -234 l-799 -176z" />
<glyph unicode="&#xdb;" horiz-adv-x="1468" d="M82 537v907h328v-762q0 -55 1.5 -92.5t6.5 -81t15 -72t25.5 -58.5t40 -48.5t57 -34t77 -22.5t100.5 -7t100.5 7t77.5 22t57.5 34t40.5 48.5t26 59t15.5 72t7 81t1.5 92.5v762h327v-907q0 -271 -166.5 -414t-486.5 -143t-485.5 143t-165.5 414zM291 1688l442 309l443 -309 l-175 -164l-268 186l-268 -186z" />
<glyph unicode="&#xdc;" horiz-adv-x="1468" d="M82 537v907h328v-762q0 -55 1.5 -92.5t6.5 -81t15 -72t25.5 -58.5t40 -48.5t57 -34t77 -22.5t100.5 -7t100.5 7t77.5 22t57.5 34t40.5 48.5t26 59t15.5 72t7 81t1.5 92.5v762h327v-907q0 -271 -166.5 -414t-486.5 -143t-485.5 143t-165.5 414zM262 1710q0 78 52.5 121 t150.5 43t152.5 -43t54.5 -121q0 -79 -54 -121.5t-153 -42.5q-98 0 -150.5 42.5t-52.5 121.5zM795 1710q0 78 52 121t150 43t152.5 -43t54.5 -121q0 -79 -54 -121.5t-153 -42.5q-98 0 -150 42t-52 122z" />
<glyph unicode="&#xdd;" horiz-adv-x="1480" d="M41 1444h350l307 -602v-185h82v185l310 602h350l-537 -979v-465h-328v465zM291 1780l799 176l55 -234l-799 -176z" />
<glyph unicode="&#xde;" horiz-adv-x="1366" d="M123 0v1444h328v-215h190q84 0 151 -5t135.5 -19t120 -37.5t98 -62t75.5 -91t46 -126t17 -165.5t-17 -166t-46 -126.5t-75.5 -91t-98 -62.5t-120 -38t-135.5 -19t-151 -5h-190v-215h-328zM451 502h211q74 0 107.5 2t78.5 12.5t62.5 33.5t31.5 65.5t14 107.5t-14 107 t-31.5 64.5t-62.5 33.5t-78.5 12.5t-107.5 1.5h-211v-440z" />
<glyph unicode="&#xdf;" horiz-adv-x="1380" d="M123 0v969q0 134 43 232t122 154.5t177.5 82.5t220.5 26q123 0 218.5 -25.5t152 -69t85.5 -96.5t29 -112q0 -51 -21 -93.5t-50.5 -72.5t-59 -58t-50.5 -63t-21 -75q0 -36 20.5 -61t53 -41t72 -31.5t79 -38t72 -53.5t53 -86t20.5 -128q0 -136 -66 -226.5t-172 -126.5 t-241 -27l-295 20v287l254 -19q103 -8 148 20.5t45 112.5q0 41 -20.5 71t-53 48t-72.5 33t-79.5 32.5t-72 40t-53 61.5t-20.5 91q0 53 21 96t50.5 70t59.5 50.5t51 48.5t21 51q0 43 -36 63.5t-122 20.5q-112 0 -173.5 -56t-61.5 -194v-928h-328z" />
<glyph unicode="&#xe0;" horiz-adv-x="1318" d="M82 283q0 137 95 215.5t319 109.5l325 45q0 65 -51.5 100t-155.5 35q-98 0 -151 -39t-53 -110h-308q0 128 68 223.5t183.5 144t260.5 48.5q110 0 204 -27.5t169.5 -83t118.5 -149.5t43 -217v-291h149v-287h-227q-73 0 -113 40t-40 114v20l51 123h-82q-16 -70 -43.5 -123 t-76 -99t-126 -70.5t-182.5 -24.5q-92 0 -162.5 22t-110 54t-64 75t-32.5 79t-8 73zM227 1313l56 233l798 -176l-55 -233zM410 344q0 -41 32.5 -59.5t79.5 -18.5q136 0 217.5 54.5t81.5 148.5l-264 -37q-81 -12 -114 -29t-33 -59z" />
<glyph unicode="&#xe1;" horiz-adv-x="1318" d="M82 283q0 137 95 215.5t319 109.5l325 45q0 65 -51.5 100t-155.5 35q-98 0 -151 -39t-53 -110h-308q0 128 68 223.5t183.5 144t260.5 48.5q110 0 204 -27.5t169.5 -83t118.5 -149.5t43 -217v-291h149v-287h-227q-73 0 -113 40t-40 114v20l51 123h-82q-16 -70 -43.5 -123 t-76 -99t-126 -70.5t-182.5 -24.5q-92 0 -162.5 22t-110 54t-64 75t-32.5 79t-8 73zM186 1370l799 176l55 -233l-798 -176zM410 344q0 -41 32.5 -59.5t79.5 -18.5q136 0 217.5 54.5t81.5 148.5l-264 -37q-81 -12 -114 -29t-33 -59z" />
<glyph unicode="&#xe2;" horiz-adv-x="1318" d="M82 283q0 137 95 215.5t319 109.5l325 45q0 65 -51.5 100t-155.5 35q-98 0 -151 -39t-53 -110h-308q0 128 68 223.5t183.5 144t260.5 48.5q110 0 204 -27.5t169.5 -83t118.5 -149.5t43 -217v-291h149v-287h-227q-73 0 -113 40t-40 114v20l51 123h-82q-16 -70 -43.5 -123 t-76 -99t-126 -70.5t-182.5 -24.5q-92 0 -162.5 22t-110 54t-64 75t-32.5 79t-8 73zM193 1278l442 309l442 -309l-174 -164l-268 186l-268 -186zM410 344q0 -41 32.5 -59.5t79.5 -18.5q136 0 217.5 54.5t81.5 148.5l-264 -37q-81 -12 -114 -29t-33 -59z" />
<glyph unicode="&#xe3;" horiz-adv-x="1318" d="M82 283q0 137 95 215.5t319 109.5l325 45q0 65 -51.5 100t-155.5 35q-98 0 -151 -39t-53 -110h-308q0 128 68 223.5t183.5 144t260.5 48.5q110 0 204 -27.5t169.5 -83t118.5 -149.5t43 -217v-291h149v-287h-227q-73 0 -113 40t-40 114v20l51 123h-82q-16 -70 -43.5 -123 t-76 -99t-126 -70.5t-182.5 -24.5q-92 0 -162.5 22t-110 54t-64 75t-32.5 79t-8 73zM156 1229q0 179 80.5 284t220.5 105q52 0 97.5 -17t76.5 -41t58 -48t53.5 -41t50.5 -17q38 0 56.5 28.5t18.5 114.5h246q0 -179 -80.5 -284t-220.5 -105q-52 0 -97.5 17t-76.5 41t-58 48 t-53.5 41t-50.5 17q-38 0 -57 -29t-19 -114h-245zM410 344q0 -41 32.5 -59.5t79.5 -18.5q136 0 217.5 54.5t81.5 148.5l-264 -37q-81 -12 -114 -29t-33 -59z" />
<glyph unicode="&#xe4;" horiz-adv-x="1318" d="M82 283q0 137 95 215.5t319 109.5l325 45q0 65 -51.5 100t-155.5 35q-98 0 -151 -39t-53 -110h-308q0 128 68 223.5t183.5 144t260.5 48.5q110 0 204 -27.5t169.5 -83t118.5 -149.5t43 -217v-291h149v-287h-227q-73 0 -113 40t-40 114v20l51 123h-82q-16 -70 -43.5 -123 t-76 -99t-126 -70.5t-182.5 -24.5q-92 0 -162.5 22t-110 54t-64 75t-32.5 79t-8 73zM164 1300q0 78 52.5 121t150.5 43t152 -43t54 -121q0 -79 -53.5 -121t-152.5 -42q-98 0 -150.5 42t-52.5 121zM410 344q0 -41 32.5 -59.5t79.5 -18.5q136 0 217.5 54.5t81.5 148.5 l-264 -37q-81 -12 -114 -29t-33 -59zM696 1300q0 78 52.5 121t150.5 43t152.5 -43t54.5 -121q0 -79 -54 -121t-153 -42q-98 0 -150.5 42t-52.5 121z" />
<glyph unicode="&#xe5;" horiz-adv-x="1318" d="M82 283q0 137 95 215.5t319 109.5l325 45q0 65 -51.5 100t-155.5 35q-98 0 -151 -39t-53 -110h-308q0 128 68 223.5t183.5 144t260.5 48.5q110 0 204 -27.5t169.5 -83t118.5 -149.5t43 -217v-291h149v-287h-227q-73 0 -113 40t-40 114v20l51 123h-82q-16 -70 -43.5 -123 t-76 -99t-126 -70.5t-182.5 -24.5q-92 0 -162.5 22t-110 54t-64 75t-32.5 79t-8 73zM311 1389q0 124 85 187.5t237 63.5t237.5 -63.5t85.5 -187.5t-85.5 -188t-237.5 -64q-153 0 -237.5 63.5t-84.5 188.5zM410 344q0 -41 32.5 -59.5t79.5 -18.5q136 0 217.5 54.5t81.5 148.5 l-264 -37q-81 -12 -114 -29t-33 -59zM557 1389q0 -68 76 -68q78 0 78 68q0 65 -78 65q-76 0 -76 -65z" />
<glyph unicode="&#xe6;" horiz-adv-x="2131" d="M82 283q0 137 95 215.5t319 109.5l325 45q0 65 -51.5 100t-155.5 35q-98 0 -151 -39t-53 -110h-308q0 128 68 223.5t183.5 144t260.5 48.5q136 0 241.5 -49t166.5 -150q71 96 185.5 147.5t258.5 51.5q245 0 396 -136t151 -368v-102h-784q0 -93 68.5 -148t203.5 -55 q88 0 147 31t74 88h328q-8 -60 -45 -124t-101.5 -124t-170 -98.5t-232.5 -38.5q-206 0 -341 85.5t-195 231.5h-78q-32 -142 -136 -229.5t-292 -87.5q-92 0 -162.5 22t-110 54t-64 75t-32.5 79t-8 73zM410 338q0 -72 112 -72q136 0 217.5 54.5t81.5 148.5l-264 -37 q-81 -12 -114 -30t-33 -64zM1229 633h477q0 66 -57 110.5t-183 44.5t-181.5 -44t-55.5 -111z" />
<glyph unicode="&#xe7;" horiz-adv-x="1284" d="M82 518q0 253 156 395t409 142q107 0 204 -29t174 -84t124.5 -142t52.5 -194h-328q-9 71 -70 116.5t-157 45.5q-116 0 -176.5 -65t-60.5 -185q0 -121 60.5 -186.5t176.5 -65.5q96 0 157 45.5t70 116.5h328q-9 -185 -135.5 -300.5t-316.5 -141.5l-99 -109q87 41 191 41 q47 0 83.5 -9.5t64.5 -39.5t28 -78q0 -42 -17 -75.5t-45 -56.5t-72.5 -39.5t-90 -26t-107.5 -15t-116 -7t-124 -1.5v184h74q148 -1 200 6.5t52 40.5q0 15 -13 25t-34 10q-55 0 -160 -37l-104 80l51 113q-198 35 -314 171.5t-116 354.5z" />
<glyph unicode="&#xe8;" horiz-adv-x="1292" d="M82 530q0 243 150 384t395 141t396 -136t151 -368v-102h-785q0 -93 69 -148t204 -55q88 0 147 31t74 88h327q-6 -47 -29.5 -97.5t-69.5 -102.5t-107 -92.5t-150 -66.5t-192 -26q-144 0 -257 44.5t-182.5 121t-105 174.5t-35.5 210zM240 1313l55 233l799 -176l-56 -233z M389 633h477q0 67 -56.5 111t-182.5 44t-182 -44t-56 -111z" />
<glyph unicode="&#xe9;" horiz-adv-x="1292" d="M82 530q0 243 150 384t395 141t396 -136t151 -368v-102h-785q0 -93 69 -148t204 -55q88 0 147 31t74 88h327q-6 -47 -29.5 -97.5t-69.5 -102.5t-107 -92.5t-150 -66.5t-192 -26q-144 0 -257 44.5t-182.5 121t-105 174.5t-35.5 210zM199 1370l798 176l56 -233l-799 -176z M389 633h477q0 67 -56.5 111t-182.5 44t-182 -44t-56 -111z" />
<glyph unicode="&#xea;" horiz-adv-x="1292" d="M82 530q0 243 150 384t395 141t396 -136t151 -368v-102h-785q0 -93 69 -148t204 -55q88 0 147 31t74 88h327q-6 -47 -29.5 -97.5t-69.5 -102.5t-107 -92.5t-150 -66.5t-192 -26q-144 0 -257 44.5t-182.5 121t-105 174.5t-35.5 210zM205 1278l442 309l443 -309l-175 -164 l-268 186l-268 -186zM389 633h477q0 67 -56.5 111t-182.5 44t-182 -44t-56 -111z" />
<glyph unicode="&#xeb;" horiz-adv-x="1292" d="M82 530q0 243 150 384t395 141t396 -136t151 -368v-102h-785q0 -93 69 -148t204 -55q88 0 147 31t74 88h327q-6 -47 -29.5 -97.5t-69.5 -102.5t-107 -92.5t-150 -66.5t-192 -26q-144 0 -257 44.5t-182.5 121t-105 174.5t-35.5 210zM176 1300q0 78 52.5 121t150.5 43 t152.5 -43t54.5 -121q0 -79 -54 -121t-153 -42q-98 0 -150.5 42t-52.5 121zM389 633h477q0 67 -56.5 111t-182.5 44t-182 -44t-56 -111zM709 1300q0 78 52 121t150 43t152.5 -43t54.5 -121q0 -79 -54 -121t-153 -42q-98 0 -150 42t-52 121z" />
<glyph unicode="&#xec;" horiz-adv-x="1024" d="M63 1313l56 233l799 -176l-56 -233zM82 0v287h293v473l-252 -12v286l389 21q86 4 132 -40.5t46 -131.5v-596h293v-287h-901z" />
<glyph unicode="&#xed;" horiz-adv-x="1062" d="M82 1370l799 176l55 -233l-799 -176zM121 0v287h293v473l-252 -12v286l389 21q86 4 132 -40.5t46 -131.5v-596h293v-287h-901z" />
<glyph unicode="&#xee;" horiz-adv-x="1056" d="M61 1278l443 309l442 -309l-174 -164l-268 186l-268 -186zM115 0v287h293v473l-252 -12v286l389 21q86 4 132 -40.5t46 -131.5v-596h293v-287h-901z" />
<glyph unicode="&#xef;" horiz-adv-x="1062" d="M59 1300q0 78 52.5 121t150.5 43t152.5 -43t54.5 -121q0 -79 -54 -121t-153 -42q-98 0 -150.5 42t-52.5 121zM121 0v287h293v473l-252 -12v286l389 21q86 4 132 -40.5t46 -131.5v-596h293v-287h-901zM592 1300q0 78 52.5 121t150.5 43t152 -43t54 -121q0 -79 -53.5 -121 t-152.5 -42q-98 0 -150.5 42t-52.5 121z" />
<glyph unicode="&#xf0;" horiz-adv-x="1439" d="M82 516q0 112 39.5 210.5t111.5 171.5t180.5 115t239.5 42q224 0 349 -132.5t145 -353.5h82l-62 185q-20 161 -111 268.5t-253 173.5l-170 -109l-217 97l135 86q-81 18 -207 35v286q295 -31 508 -127l149 97l218 -97l-177 -112q316 -241 316 -699q0 -315 -173 -494 t-472 -179q-288 0 -459.5 149.5t-171.5 386.5zM410 516q0 -119 79 -184.5t232 -65.5t231 65.5t78 184.5q0 133 -75.5 192.5t-233.5 59.5t-234.5 -59.5t-76.5 -192.5z" />
<glyph unicode="&#xf1;" horiz-adv-x="1388" d="M123 0v1034h328v-125l-62 -184h82q33 147 133 238.5t258 91.5q200 0 312 -129.5t112 -366.5v-559h-328v508q0 142 -47.5 201t-165.5 59q-142 0 -218 -88.5t-76 -296.5v-383h-328zM256 1229q0 179 80.5 284t220.5 105q52 0 97.5 -17t76.5 -41t58 -48t53.5 -41t50.5 -17 q38 0 57 29t19 114h245q0 -179 -80.5 -284t-220.5 -105q-52 0 -97.5 17t-76.5 41t-57.5 48t-53 41t-50.5 17q-38 0 -57 -29t-19 -114h-246z" />
<glyph unicode="&#xf2;" horiz-adv-x="1329" d="M82 518q0 132 45 235.5t125 168.5t185 99t229 34q123 0 227.5 -34t184 -99t124.5 -168.5t45 -235.5t-45 -236t-124.5 -169.5t-184 -99t-227.5 -33.5q-124 0 -229 33.5t-185 99t-125 169.5t-45 236zM258 1313l55 233l799 -176l-55 -233zM410 518q0 -127 67.5 -189.5 t188.5 -62.5q120 0 187 62.5t67 189.5q0 125 -67.5 187.5t-186.5 62.5q-121 0 -188.5 -62.5t-67.5 -187.5z" />
<glyph unicode="&#xf3;" horiz-adv-x="1329" d="M82 518q0 132 45 235.5t125 168.5t185 99t229 34q123 0 227.5 -34t184 -99t124.5 -168.5t45 -235.5t-45 -236t-124.5 -169.5t-184 -99t-227.5 -33.5q-124 0 -229 33.5t-185 99t-125 169.5t-45 236zM217 1370l799 176l55 -233l-799 -176zM410 518q0 -127 67.5 -189.5 t188.5 -62.5q120 0 187 62.5t67 189.5q0 125 -67.5 187.5t-186.5 62.5q-121 0 -188.5 -62.5t-67.5 -187.5z" />
<glyph unicode="&#xf4;" horiz-adv-x="1329" d="M82 518q0 132 45 235.5t125 168.5t185 99t229 34q123 0 227.5 -34t184 -99t124.5 -168.5t45 -235.5t-45 -236t-124.5 -169.5t-184 -99t-227.5 -33.5q-124 0 -229 33.5t-185 99t-125 169.5t-45 236zM223 1278l443 309l442 -309l-174 -164l-268 186l-269 -186zM410 518 q0 -127 67.5 -189.5t188.5 -62.5q120 0 187 62.5t67 189.5q0 125 -67.5 187.5t-186.5 62.5q-121 0 -188.5 -62.5t-67.5 -187.5z" />
<glyph unicode="&#xf5;" horiz-adv-x="1329" d="M82 518q0 132 45 235.5t125 168.5t185 99t229 34q123 0 227.5 -34t184 -99t124.5 -168.5t45 -235.5t-45 -236t-124.5 -169.5t-184 -99t-227.5 -33.5q-124 0 -229 33.5t-185 99t-125 169.5t-45 236zM186 1229q0 179 80.5 284t220.5 105q52 0 97.5 -17t76.5 -41t58 -48 t53.5 -41t50.5 -17q38 0 57 29t19 114h246q0 -179 -80.5 -284t-220.5 -105q-52 0 -97.5 17t-76.5 41t-58 48t-53.5 41t-50.5 17q-38 0 -57 -29t-19 -114h-246zM410 518q0 -127 67.5 -189.5t188.5 -62.5q120 0 187 62.5t67 189.5q0 125 -67.5 187.5t-186.5 62.5 q-121 0 -188.5 -62.5t-67.5 -187.5z" />
<glyph unicode="&#xf6;" horiz-adv-x="1329" d="M82 518q0 132 45 235.5t125 168.5t185 99t229 34q123 0 227.5 -34t184 -99t124.5 -168.5t45 -235.5t-45 -236t-124.5 -169.5t-184 -99t-227.5 -33.5q-124 0 -229 33.5t-185 99t-125 169.5t-45 236zM195 1300q0 78 52 121t150 43t152.5 -43t54.5 -121q0 -79 -54 -121 t-153 -42q-98 0 -150 42t-52 121zM410 518q0 -127 67.5 -189.5t188.5 -62.5q120 0 187 62.5t67 189.5q0 125 -67.5 187.5t-186.5 62.5q-121 0 -188.5 -62.5t-67.5 -187.5zM727 1300q0 78 52.5 121t150.5 43t152.5 -43t54.5 -121q0 -79 -54 -121t-153 -42q-98 0 -150.5 42 t-52.5 121z" />
<glyph unicode="&#xf7;" d="M143 428v246h1106v-246h-1106zM471 125q0 96 60.5 159.5t162.5 63.5q100 0 164 -64t64 -159q0 -98 -64 -162.5t-164 -64.5q-102 0 -162.5 64t-60.5 163zM471 985q0 96 60.5 159.5t162.5 63.5q100 0 164 -64t64 -159q0 -98 -64 -162.5t-164 -64.5q-102 0 -162.5 64 t-60.5 163z" />
<glyph unicode="&#xf8;" horiz-adv-x="1329" d="M82 520q0 132 45 235.5t125 168.5t185 99t229 34q96 0 182 -21l65 115l177 -100l-56 -95q213 -143 213 -436q0 -132 -45 -236t-124.5 -169.5t-184 -99t-227.5 -33.5q-106 0 -187 20l-67 -115l-172 99l55 96q-213 143 -213 438zM410 520q0 -100 45 -164l237 414h-26 q-121 0 -188.5 -62.5t-67.5 -187.5zM635 270q10 -2 31 -2q120 0 187 62.5t67 189.5q0 100 -46 162z" />
<glyph unicode="&#xf9;" horiz-adv-x="1368" d="M102 475v559h328v-508q0 -142 47.5 -201t165.5 -59q143 0 219 88.5t76 296.5v383h328v-1034h-328v125l61 184h-81q-33 -146 -133.5 -237.5t-258.5 -91.5q-200 0 -312 129t-112 366zM276 1313l56 233l798 -176l-55 -233z" />
<glyph unicode="&#xfa;" horiz-adv-x="1368" d="M102 475v559h328v-508q0 -142 47.5 -201t165.5 -59q143 0 219 88.5t76 296.5v383h328v-1034h-328v125l61 184h-81q-33 -146 -133.5 -237.5t-258.5 -91.5q-200 0 -312 129t-112 366zM236 1370l798 176l56 -233l-799 -176z" />
<glyph unicode="&#xfb;" horiz-adv-x="1368" d="M102 475v559h328v-508q0 -142 47.5 -201t165.5 -59q143 0 219 88.5t76 296.5v383h328v-1034h-328v125l61 184h-81q-33 -146 -133.5 -237.5t-258.5 -91.5q-200 0 -312 129t-112 366zM242 1278l442 309l442 -309l-174 -164l-268 186l-268 -186z" />
<glyph unicode="&#xfc;" horiz-adv-x="1368" d="M102 475v559h328v-508q0 -142 47.5 -201t165.5 -59q143 0 219 88.5t76 296.5v383h328v-1034h-328v125l61 184h-81q-33 -146 -133.5 -237.5t-258.5 -91.5q-200 0 -312 129t-112 366zM213 1300q0 78 52.5 121t150.5 43t152.5 -43t54.5 -121q0 -79 -54 -121t-153 -42 q-98 0 -150.5 42t-52.5 121zM745 1300q0 78 52.5 121t150.5 43t152.5 -43t54.5 -121q0 -79 -54 -121t-153 -42q-98 0 -150.5 42t-52.5 121z" />
<glyph unicode="&#xfd;" horiz-adv-x="1376" d="M61 1034h369l227 -569v-164h82v164l226 569h370l-473 -973v-319q0 -86 -45.5 -130.5t-130.5 -41.5l-506 14v287l355 -6v196zM250 1370l799 176l55 -233l-799 -176z" />
<glyph unicode="&#xfe;" horiz-adv-x="1409" d="M123 -389v1894h328v-534l-62 -185h82q22 57 51 101t75.5 84t118 62t163.5 22q144 0 247.5 -74.5t152 -194.5t48.5 -270q0 -111 -28.5 -207.5t-83 -170t-141 -116t-195.5 -42.5q-74 0 -135.5 15t-103.5 39.5t-76 60.5t-55 72t-38 81h-82l62 -185v-452h-328zM451 516 q0 -250 274 -250t274 250q0 252 -274 252t-274 -252z" />
<glyph unicode="&#xff;" horiz-adv-x="1376" d="M61 1034h369l227 -569v-164h82v164l226 569h370l-473 -973v-319q0 -86 -45.5 -130.5t-130.5 -41.5l-506 14v287l355 -6v196zM227 1300q0 78 52.5 121t150.5 43t152.5 -43t54.5 -121q0 -79 -54 -121t-153 -42q-98 0 -150.5 42t-52.5 121zM760 1300q0 78 52.5 121t150.5 43 t152 -43t54 -121q0 -79 -53.5 -121t-152.5 -42q-98 0 -150.5 42t-52.5 121z" />
<glyph unicode="&#x152;" horiz-adv-x="2379" d="M102 723q0 157 51.5 293t145 235t233 156t308.5 57q250 0 428 -121v101h1030v-287h-703v-291h600v-286h-600v-293h703v-287h-1030v100q-177 -120 -428 -120q-169 0 -308.5 57t-233 156.5t-145 235.5t-51.5 294zM430 723q0 -214 105 -335.5t305 -121.5t303.5 121.5 t103.5 335.5q0 212 -104 333.5t-303 121.5q-200 0 -305 -121.5t-105 -333.5z" />
<glyph unicode="&#x153;" horiz-adv-x="2211" d="M82 518q0 132 45 235.5t125 168.5t185 99t229 34q141 0 258.5 -44t195.5 -130q72 85 181.5 129.5t244.5 44.5q245 0 396 -136t151 -368v-102h-784q0 -93 68.5 -148t203.5 -55q88 0 147 31t74 88h328q-8 -60 -45 -124t-101.5 -124t-170 -98.5t-232.5 -38.5 q-298 0 -455 182q-76 -90 -195.5 -136t-264.5 -46q-124 0 -229 33.5t-185 99t-125 169.5t-45 236zM410 518q0 -127 67.5 -189.5t188.5 -62.5q120 0 187 62.5t67 189.5q0 125 -67.5 187.5t-186.5 62.5q-121 0 -188.5 -62.5t-67.5 -187.5zM1309 633h477q0 66 -57 110.5 t-183 44.5t-181.5 -44t-55.5 -111z" />
<glyph unicode="&#x178;" horiz-adv-x="1480" d="M41 1444h350l307 -602v-185h82v185l310 602h350l-537 -979v-465h-328v465zM268 1710q0 78 52.5 121t150.5 43t152.5 -43t54.5 -121q0 -79 -54 -121.5t-153 -42.5q-98 0 -150.5 42.5t-52.5 121.5zM801 1710q0 78 52.5 121t150.5 43t152 -43t54 -121q0 -79 -53.5 -121.5 t-152.5 -42.5q-98 0 -150.5 42.5t-52.5 121.5z" />
<glyph unicode="&#x2c6;" horiz-adv-x="1171" d="M143 1278l443 309l442 -309l-174 -164l-268 186l-269 -186z" />
<glyph unicode="&#x2dc;" horiz-adv-x="1245" d="M143 1208q0 179 80.5 284t220.5 105q52 0 97.5 -17t76.5 -40.5t58 -47.5t53.5 -41t50.5 -17q38 0 57 29t19 114h246q0 -179 -80.5 -284t-220.5 -105q-52 0 -97.5 17t-76.5 41t-58 48t-53.5 41t-50.5 17q-38 0 -57 -29t-19 -115h-246z" />
<glyph unicode="&#x2000;" horiz-adv-x="1025" />
<glyph unicode="&#x2001;" horiz-adv-x="2050" />
<glyph unicode="&#x2002;" horiz-adv-x="1025" />
<glyph unicode="&#x2003;" horiz-adv-x="2050" />
<glyph unicode="&#x2004;" horiz-adv-x="683" />
<glyph unicode="&#x2005;" horiz-adv-x="512" />
<glyph unicode="&#x2006;" horiz-adv-x="341" />
<glyph unicode="&#x2007;" horiz-adv-x="341" />
<glyph unicode="&#x2008;" horiz-adv-x="256" />
<glyph unicode="&#x2009;" horiz-adv-x="410" />
<glyph unicode="&#x200a;" horiz-adv-x="113" />
<glyph unicode="&#x2010;" d="M143 430v246h1106v-246h-1106z" />
<glyph unicode="&#x2011;" d="M143 430v246h1106v-246h-1106z" />
<glyph unicode="&#x2012;" d="M143 430v246h1106v-246h-1106z" />
<glyph unicode="&#x2013;" horiz-adv-x="1822" d="M143 430v246h1536v-246h-1536z" />
<glyph unicode="&#x2014;" horiz-adv-x="2232" d="M143 430v246h1946v-246h-1946z" />
<glyph unicode="&#x2018;" horiz-adv-x="694" d="M143 1530l238 63l170 -632l-238 -64z" />
<glyph unicode="&#x2019;" horiz-adv-x="694" d="M143 961l170 632l238 -63l-170 -633z" />
<glyph unicode="&#x201a;" horiz-adv-x="724" d="M143 -352l201 725l238 -64l-201 -725z" />
<glyph unicode="&#x201c;" horiz-adv-x="1091" d="M143 1530l238 63l170 -632l-238 -64zM541 1530l237 63l170 -632l-237 -64z" />
<glyph unicode="&#x201d;" horiz-adv-x="1091" d="M143 961l170 632l238 -63l-170 -633zM541 961l170 632l237 -63l-170 -633z" />
<glyph unicode="&#x201e;" horiz-adv-x="1124" d="M143 -352l201 725l238 -64l-201 -725zM543 -352l200 725l238 -64l-201 -725z" />
<glyph unicode="&#x2022;" horiz-adv-x="1603" d="M143 522q0 137 45.5 256.5t128 208t206.5 139t274 50.5q193 0 345.5 -87t235 -235.5t82.5 -331.5q0 -187 -82.5 -338t-234.5 -238t-346 -87q-199 0 -349 87.5t-227.5 237t-77.5 338.5z" />
<glyph unicode="&#x2026;" horiz-adv-x="1863" d="M143 207q0 96 61 159.5t163 63.5q100 0 163.5 -64t63.5 -159q0 -98 -63.5 -162.5t-163.5 -64.5q-102 0 -163 64t-61 163zM707 207q0 96 60.5 159.5t162.5 63.5q100 0 163.5 -64t63.5 -159q0 -98 -63.5 -162.5t-163.5 -64.5q-102 0 -162.5 64t-60.5 163zM1270 207 q0 96 60.5 159.5t162.5 63.5q100 0 163.5 -64t63.5 -159q0 -98 -63.5 -162.5t-163.5 -64.5q-102 0 -162.5 64t-60.5 163z" />
<glyph unicode="&#x202f;" horiz-adv-x="410" />
<glyph unicode="&#x2039;" horiz-adv-x="1120" d="M143 508l654 649l180 -164l-485 -485l485 -488l-180 -163z" />
<glyph unicode="&#x203a;" horiz-adv-x="1120" d="M143 20l486 488l-486 485l181 164l653 -649l-653 -651z" />
<glyph unicode="&#x205f;" horiz-adv-x="512" />
<glyph unicode="&#x20ac;" horiz-adv-x="1775" d="M143 455v204h191q-2 20 -2 64q0 39 2 59h-191v205h224q61 221 226.5 349t424.5 128q257 0 418.5 -134t195.5 -374h-327q-37 222 -287 222q-117 0 -197 -44t-121 -147h402v-205h-440q-3 -27 -3 -59q0 -34 3 -64h440v-204h-402q78 -189 318 -189q251 0 291 223h323 q-34 -240 -195.5 -374.5t-418.5 -134.5t-423 127.5t-228 347.5h-224z" />
<glyph unicode="&#x2122;" horiz-adv-x="1982" d="M143 1260v184h615v-184h-203v-500h-205v500h-207zM809 760v684h414l82 -602h41l81 602h412v-684h-205v450l52 152h-62l-90 -602h-418l-92 602h-59l49 -152v-450h-205z" />
<glyph unicode="&#x25fc;" horiz-adv-x="1034" d="M0 0v1034h1034v-1034h-1034z" />
<glyph unicode="&#xfb01;" horiz-adv-x="1703" d="M61 0v287h197v463l-197 -2v286l197 4v33q0 219 129.5 344t378.5 111l360 -21v-286l-401 20q-70 3 -104.5 -43t-34.5 -135v-17l612 11q87 2 132.5 -42t45.5 -130v-596h287v-287h-1602zM586 287h463v473l-463 -6v-467z" />
<glyph unicode="&#xfb03;" horiz-adv-x="2492" d="M61 0v287h248l2 461h-250v286h252q20 201 152.5 305.5t349.5 104.5h395q133 93 344 82l361 -21v-286l-402 20q-70 3 -104.5 -43t-34.5 -135v-17l613 11q87 2 132.5 -42t45.5 -130v-596h286v-287h-2390zM639 287h408v463l-154 -2h-254v-461zM645 1034h205l197 4v33 q0 45 6 86h-238q-80 0 -119.5 -29.5t-50.5 -93.5zM1374 287h463v473l-463 -6v-467z" />
</font>
</defs>
</svg>
